<svg width="22" height="22" viewBox="0 0 22 22" fill="none" xmlns="http://www.w3.org/2000/svg">
<path fill-rule="evenodd" clip-rule="evenodd" d="M11.7062 8.88323C12.0962 8.49322 12.0962 7.86088 11.7062 7.47087C11.3162 7.08086 10.6839 7.08086 10.2939 7.47087C9.90385 7.86088 9.90385 8.49322 10.2939 8.88323C10.6839 9.27324 11.3162 9.27324 11.7062 8.88323ZM8.88132 11.7076C9.27133 11.3176 9.27133 10.6853 8.88132 10.2953C8.49131 9.90528 7.85897 9.90528 7.46896 10.2953C7.07895 10.6853 7.07895 11.3176 7.46896 11.7076C7.85897 12.0977 8.49131 12.0977 8.88132 11.7076ZM11.7062 14.5321C12.0962 14.1421 12.0962 13.5097 11.7062 13.1197C11.3162 12.7297 10.6839 12.7297 10.2939 13.1197C9.90385 13.5097 9.90385 14.1421 10.2939 14.5321C10.6839 14.9221 11.3162 14.9221 11.7062 14.5321ZM14.5306 10.2953C14.9207 10.6853 14.9207 11.3176 14.5306 11.7076C14.1406 12.0977 13.5083 12.0977 13.1183 11.7076C12.7283 11.3176 12.7283 10.6853 13.1183 10.2953C13.5083 9.90528 14.1406 9.90528 14.5306 10.2953Z" fill="#212135"/>
<path d="M11.1082 19.1985C9.89864 18.2634 8.48641 16.9587 6.76385 15.2362C5.04298 13.5153 3.73915 12.1041 2.80423 10.8954C1.36835 9.0389 0.926716 7.81475 1.0097 6.81435C1.09349 5.80427 1.73317 4.73272 3.23295 3.23295C4.73272 1.73317 5.80427 1.09349 6.81435 1.0097C7.81475 0.926716 9.0389 1.36835 10.8954 2.80423C12.1041 3.73915 13.5153 5.04298 15.2362 6.76385C16.9613 8.48896 18.2672 9.90281 19.2026 11.1135C20.6343 12.9666 21.0739 14.1889 20.9901 15.1881C20.9055 16.1975 20.2656 17.2685 18.767 18.767C17.2678 20.2663 16.1964 20.9061 15.1866 20.9902C14.1867 21.0735 12.9633 20.6327 11.1082 19.1985Z" stroke="#212135" stroke-width="2" stroke-linecap="round" stroke-linejoin="round"/>
</svg>
