<svg width="18" height="24" viewBox="0 0 18 24" fill="none" xmlns="http://www.w3.org/2000/svg">
<path fill-rule="evenodd" clip-rule="evenodd" d="M5.9892 7.41354L3.69641 6.07534C3.60215 6.02032 3.51701 5.9117 3.49532 5.75033C3.46307 5.51035 3.56164 5.29672 3.75833 5.15716C3.95129 5.02025 4.11596 5.03193 4.24822 5.10913L4.4195 5.2091C6.65356 6.51301 9.4226 5.63309 10.6618 3.46338L10.6621 3.46271L10.6625 3.46204L10.6629 3.46137L10.6633 3.4607L10.6637 3.46003L10.664 3.45937L10.6644 3.4587L10.6648 3.45803L10.6652 3.45736L10.6656 3.45669L10.666 3.45602L10.6663 3.45535L10.6667 3.45468L10.6671 3.45401L10.6675 3.45334L10.6679 3.45267L10.6683 3.452L10.6686 3.45133L10.669 3.45065L10.6694 3.44998L10.6698 3.44931L10.6702 3.44864L10.6706 3.44797L10.6709 3.4473L10.6713 3.44663L10.6717 3.44596L10.6721 3.44528L10.6725 3.44461L10.6729 3.44394L10.6732 3.44327L10.6736 3.4426L10.674 3.44192L10.6744 3.44125L10.6748 3.44058L10.6752 3.4399L10.6755 3.43923L10.6759 3.43856L10.6763 3.43789L10.6767 3.43721L10.6771 3.43654L10.6775 3.43587L10.6779 3.43519L10.6782 3.43452L10.6786 3.43384L10.679 3.43317L10.6794 3.4325L10.6798 3.43182L10.6802 3.43115L10.6805 3.43047L10.6809 3.4298L10.6813 3.42912L10.6817 3.42845L10.6821 3.42777L10.6825 3.4271L10.6829 3.42642L10.6832 3.42575L10.6836 3.42507L10.684 3.4244L10.6844 3.42372L10.6848 3.42304L10.6852 3.42237L10.6856 3.42169L10.6859 3.42102L10.6863 3.42034L10.6867 3.41966L10.6871 3.41899L10.6875 3.41831L10.6879 3.41763L10.6883 3.41696L10.6887 3.41628L10.689 3.4156L10.6894 3.41492L10.6898 3.41425L10.6902 3.41357L10.6906 3.41289L10.691 3.41221L10.6914 3.41154L10.6917 3.41086L10.6921 3.41018L10.6925 3.4095L10.6929 3.40882L10.6933 3.40814L10.6937 3.40746L10.6941 3.40679L10.6945 3.40611L10.6948 3.40543L10.6952 3.40475L10.6956 3.40407L10.696 3.40339L10.6964 3.40271L10.6968 3.40203L10.6972 3.40135L10.6976 3.40067L10.698 3.39999L10.6983 3.39931L10.6987 3.39863L10.6991 3.39795L10.6995 3.39727L10.6999 3.39659L10.7003 3.39591L10.7007 3.39523L10.7011 3.39454L10.7015 3.39386L10.7018 3.39318L10.7022 3.3925L10.7026 3.39182L10.703 3.39114L10.7034 3.39046L10.7038 3.38977L10.7042 3.38909L10.7046 3.38841L10.705 3.38773L10.7053 3.38704L10.7057 3.38636L10.7061 3.38568L10.7065 3.385L10.7069 3.38431L10.7073 3.38363L10.7077 3.38295L10.7081 3.38226L10.7085 3.38158L10.7089 3.3809L10.7093 3.38021L10.7096 3.37953L10.71 3.37884L10.7104 3.37816L10.7108 3.37748L10.7112 3.37679L10.7116 3.37611L10.712 3.37542L10.7124 3.37474L10.7128 3.37405L10.7132 3.37337L10.7136 3.37268L10.7139 3.372L10.7143 3.37131L10.7147 3.37063L10.7151 3.36994L10.7155 3.36925L10.7159 3.36857L10.7163 3.36788L10.7167 3.3672L10.7171 3.36651L10.7175 3.36582L10.7179 3.36514L10.7183 3.36445L10.7186 3.36376L10.719 3.36308L10.7194 3.36239L10.7198 3.3617L10.7202 3.36102L10.7206 3.36033L10.721 3.35964L10.7214 3.35895L10.7218 3.35827L10.7222 3.35758L10.7226 3.35689L10.723 3.3562L10.7234 3.35551L10.7238 3.35483L10.7241 3.35414L10.7245 3.35345L10.7249 3.35276L10.7253 3.35207L10.7257 3.35138L10.7261 3.35069L10.7265 3.35L10.7269 3.34931L10.7273 3.34862L10.7277 3.34793L10.7281 3.34724L10.7285 3.34655L10.7289 3.34586L10.7293 3.34517L10.7297 3.34448L10.7301 3.34379L10.7304 3.3431L10.7308 3.34241L10.7312 3.34172L10.7316 3.34103L10.732 3.34034L10.7324 3.33965L10.7328 3.33896L10.7332 3.33827L10.7336 3.33757L10.734 3.33688L10.7344 3.33619L10.7348 3.3355L10.7352 3.33481L10.7356 3.33412L10.736 3.33342L10.7364 3.33273L10.7368 3.33204L10.7372 3.33135L10.7376 3.33065L10.738 3.32996L10.7383 3.32927L10.7387 3.32857L10.7391 3.32788L10.7395 3.32719L10.7399 3.32649L10.7403 3.3258L10.7407 3.32511L10.7411 3.32441L10.7415 3.32372L10.7419 3.32302L10.7423 3.32233L10.7427 3.32163L10.7431 3.32094L10.7435 3.32025L10.7439 3.31955L10.7443 3.31886L10.7447 3.31816L10.7451 3.31747L10.7455 3.31677L10.7459 3.31608L10.7463 3.31538L10.7467 3.31468L10.7471 3.31399L10.7475 3.31329L10.7479 3.3126L10.7483 3.3119L10.7487 3.3112L10.7491 3.31051L10.7495 3.30981L10.7499 3.30911L10.7503 3.30842L10.7507 3.30772L10.7511 3.30702L10.7514 3.30633L10.7518 3.30563L10.7522 3.30493L10.7526 3.30423L10.753 3.30354L10.7534 3.30284L10.7538 3.30214L10.7542 3.30144L10.7546 3.30074L10.755 3.30005L10.7554 3.29935L10.7558 3.29865L10.7562 3.29795L10.7566 3.29725L10.757 3.29655L10.7574 3.29585L10.7578 3.29515L10.7582 3.29445L10.7586 3.29375L10.759 3.29306L10.7594 3.29236L10.7598 3.29166L10.7602 3.29096L10.7606 3.29026L10.761 3.28956L10.7614 3.28886L10.7618 3.28815L10.7622 3.28745L10.7626 3.28675L10.763 3.28605L10.7634 3.28535L10.7638 3.28465L10.7642 3.28395L10.7646 3.28325L10.765 3.28255L10.7654 3.28184L10.7658 3.28114L10.7662 3.28044L10.7666 3.27974L10.767 3.27904L10.7674 3.27833L10.7678 3.27763L10.7682 3.27693L10.7686 3.27623L10.769 3.27552L10.7694 3.27482L10.7698 3.27412L10.7702 3.27342L10.7706 3.27271L10.771 3.27201L10.7715 3.27131L10.7719 3.2706L10.7723 3.2699L10.7727 3.26919L10.7731 3.26849L10.7735 3.26779L10.7739 3.26708L10.7743 3.26638L10.7747 3.26567L10.7751 3.26497L10.7755 3.26426L10.7759 3.26356L10.7763 3.26285L10.7767 3.26215L10.7771 3.26144L10.7775 3.26074L10.7779 3.26003L10.7783 3.25933L10.7787 3.25862L10.7791 3.25791L10.7795 3.25721L10.7799 3.2565L10.7803 3.2558L10.7807 3.25509L10.7811 3.25438L10.7815 3.25368L10.7819 3.25297L10.7823 3.25226L10.7827 3.25156L10.7831 3.25085L10.7835 3.25014L10.7839 3.24943L10.7843 3.24873L10.7847 3.24802L10.7852 3.24731L10.7856 3.2466L10.786 3.24589L10.7864 3.24519L10.7868 3.24448L10.7872 3.24377L10.7876 3.24306L10.788 3.24235L10.7884 3.24164L10.7888 3.24093L10.7892 3.24023L10.7896 3.23952L10.79 3.23881L10.7904 3.2381L10.7908 3.23739L10.7912 3.23668L10.7916 3.23597L10.792 3.23526L10.7924 3.23455L10.7928 3.23384L10.7933 3.23313L10.7937 3.23242L10.7941 3.23171L10.7945 3.231L10.7949 3.23028L10.7953 3.22957L10.7957 3.22886L10.7961 3.22815L10.7965 3.22744L10.7969 3.22673L10.7973 3.22602L10.7977 3.2253L10.7981 3.22459L10.7985 3.22388L10.7989 3.22317L10.7993 3.22246L10.7998 3.22174L10.8002 3.22103L10.8006 3.22032L10.801 3.21961L10.8014 3.21889L10.8018 3.21818L10.8022 3.21747L10.8026 3.21675L10.803 3.21604L10.8034 3.21533L10.8038 3.21461L10.8042 3.2139L10.8046 3.21318L10.8051 3.21247L10.8055 3.21176L10.8059 3.21104L10.8063 3.21033L10.8067 3.20961L10.8071 3.2089L10.8075 3.20818L10.8079 3.20747L10.8083 3.20675L10.8087 3.20604L10.8091 3.20532L10.8095 3.20461L10.81 3.20389L10.8104 3.20318L10.8108 3.20246L10.8112 3.20174L10.8116 3.20103L10.812 3.20031L10.8124 3.1996L10.8128 3.19888L10.8132 3.19816L10.8136 3.19745L10.814 3.19673L10.8145 3.19601L10.8149 3.1953L10.8153 3.19458L10.8157 3.19386L10.8161 3.19314L10.8165 3.19243L10.8169 3.19171L10.8173 3.19099L10.8177 3.19027L10.8181 3.18955L10.8185 3.18884L10.819 3.18812L10.8194 3.1874L10.8198 3.18668L10.8202 3.18596L10.8206 3.18524L10.821 3.18452L10.8214 3.1838L10.8218 3.18308L10.8222 3.18236L10.8227 3.18165L10.8231 3.18093L10.8235 3.18021L10.8239 3.17949L10.8243 3.17877L10.8247 3.17805L10.8251 3.17733L10.8255 3.1766L10.8259 3.17588L10.8264 3.17516L10.8268 3.17444L10.8272 3.17372L10.8276 3.173L10.828 3.17228L10.8284 3.17156L10.8288 3.17084L10.8292 3.17011L10.8297 3.16939L10.8301 3.16867L10.8305 3.16795L10.8309 3.16723L10.8313 3.16651L10.8317 3.16578L10.8321 3.16506L10.8325 3.16434L10.833 3.16361L10.8334 3.16289L10.8338 3.16217L10.8342 3.16145L10.8346 3.16072L10.835 3.16L10.8354 3.15928L10.8358 3.15855L10.8363 3.15783L10.8367 3.1571L10.8371 3.15638L10.8375 3.15566L10.8379 3.15493L10.8383 3.15421L10.8387 3.15348L10.8392 3.15276L10.8396 3.15203L10.84 3.15131L10.8404 3.15058L10.8408 3.14986L10.8412 3.14913L10.8416 3.14841L10.8421 3.14768L10.8425 3.14696L10.8429 3.14623L10.8433 3.1455L10.8437 3.14478L10.8441 3.14405L10.8445 3.14333L10.845 3.1426L10.8454 3.14187L10.8458 3.14115L10.8462 3.14042L10.8466 3.13969L10.847 3.13896L10.8474 3.13824L10.8479 3.13751L10.8483 3.13678L10.8487 3.13605L10.8491 3.13533L10.8495 3.1346L10.8499 3.13387L10.8504 3.13314L10.8508 3.13241L10.8512 3.13169L10.8516 3.13096L10.852 3.13023L10.8524 3.1295L10.8529 3.12877L10.8533 3.12804L10.8537 3.12731L10.8541 3.12658L10.8545 3.12585L10.8549 3.12512L10.8554 3.12439L10.8558 3.12366L10.8562 3.12293L10.8566 3.1222L10.857 3.12147L10.8574 3.12074L10.8579 3.12001L10.8583 3.11928L10.8587 3.11855L10.8591 3.11782L10.8595 3.11709L10.8599 3.11636L10.8604 3.11563L10.8608 3.1149L10.8612 3.11417L10.8616 3.11343L10.862 3.1127L10.8624 3.11197L10.8629 3.11124L10.8633 3.11051L10.8637 3.10977L10.8641 3.10904L10.8645 3.10831L10.865 3.10758L10.8654 3.10684L10.8658 3.10611L10.8662 3.10538L10.8666 3.10464C11.5419 1.92233 12.7495 1.78357 13.5748 2.26526C14.4001 2.74695 14.885 3.87356 14.2098 5.05587L14.2094 5.0566L14.2089 5.05732L14.2085 5.05805L14.2081 5.05877L14.2077 5.0595L14.2073 5.06022L14.2069 5.06095L14.2065 5.06167L14.206 5.0624L14.2056 5.06312L14.2052 5.06384L14.2048 5.06457L14.2044 5.06529L14.204 5.06602L14.2036 5.06674L14.2031 5.06746L14.2027 5.06819L14.2023 5.06891L14.2019 5.06963L14.2015 5.07036L14.2011 5.07108L14.2007 5.0718L14.2003 5.07253L14.1998 5.07325L14.1994 5.07397L14.199 5.0747L14.1986 5.07542L14.1982 5.07614L14.1978 5.07686L14.1974 5.07759L14.197 5.07831L14.1965 5.07903L14.1961 5.07975L14.1957 5.08047L14.1953 5.0812L14.1949 5.08192L14.1945 5.08264L14.1941 5.08336L14.1937 5.08408L14.1932 5.0848L14.1928 5.08553L14.1924 5.08625L14.192 5.08697L14.1916 5.08769L14.1912 5.08841L14.1908 5.08913L14.1904 5.08985L14.1899 5.09057L14.1895 5.09129L14.1891 5.09201L14.1887 5.09273L14.1883 5.09345L14.1879 5.09417L14.1875 5.09489L14.1871 5.09561L14.1867 5.09633L14.1862 5.09705L14.1858 5.09777L14.1854 5.09849L14.185 5.09921L14.1846 5.09993L14.1842 5.10065L14.1838 5.10137L14.1834 5.10209L14.183 5.10281L14.1825 5.10353L14.1821 5.10424L14.1817 5.10496L14.1813 5.10568L14.1809 5.1064L14.1805 5.10712L14.1801 5.10784L14.1797 5.10855L14.1793 5.10927L14.1789 5.10999L14.1784 5.11071L14.178 5.11143L14.1776 5.11214L14.1772 5.11286L14.1768 5.11358L14.1764 5.1143L14.176 5.11501L14.1756 5.11573L14.1752 5.11645L14.1748 5.11716L14.1744 5.11788L14.1739 5.1186L14.1735 5.11931L14.1731 5.12003L14.1727 5.12075L14.1723 5.12146L14.1719 5.12218L14.1715 5.1229L14.1711 5.12361L14.1707 5.12433L14.1703 5.12504L14.1699 5.12576L14.1694 5.12648L14.169 5.12719L14.1686 5.12791L14.1682 5.12862L14.1678 5.12934L14.1674 5.13005L14.167 5.13077L14.1666 5.13148L14.1662 5.1322L14.1658 5.13291L14.1654 5.13363L14.1649 5.13434L14.1645 5.13506L14.1641 5.13577L14.1637 5.13648L14.1633 5.1372L14.1629 5.13791L14.1625 5.13863L14.1621 5.13934L14.1617 5.14005L14.1613 5.14077L14.1609 5.14148L14.1605 5.1422L14.1601 5.14291L14.1596 5.14362L14.1592 5.14434L14.1588 5.14505L14.1584 5.14576L14.158 5.14647L14.1576 5.14719L14.1572 5.1479L14.1568 5.14861L14.1564 5.14932L14.156 5.15004L14.1556 5.15075L14.1552 5.15146L14.1548 5.15217L14.1544 5.15289L14.154 5.1536L14.1535 5.15431L14.1531 5.15502L14.1527 5.15573L14.1523 5.15644L14.1519 5.15716L14.1515 5.15787L14.1511 5.15858L14.1507 5.15929L14.1503 5.16L14.1499 5.16071L14.1495 5.16142L14.1491 5.16213L14.1487 5.16284L14.1483 5.16355L14.1479 5.16426L14.1475 5.16498L14.147 5.16569L14.1466 5.1664L14.1462 5.16711L14.1458 5.16782L14.1454 5.16853L14.145 5.16923L14.1446 5.16994L14.1442 5.17065L14.1438 5.17136L14.1434 5.17207L14.143 5.17278L14.1426 5.17349L14.1422 5.1742L14.1418 5.17491L14.1414 5.17562L14.141 5.17633L14.1406 5.17704L14.1402 5.17774L14.1398 5.17845L14.1394 5.17916L14.1389 5.17987L14.1385 5.18058L14.1381 5.18129L14.1377 5.18199L14.1373 5.1827L14.1369 5.18341L14.1365 5.18412L14.1361 5.18482L14.1357 5.18553L14.1353 5.18624L14.1349 5.18695L14.1345 5.18765L14.1341 5.18836L14.1337 5.18907L14.1333 5.18977L14.1329 5.19048L14.1325 5.19119L14.1321 5.19189L14.1317 5.1926L14.1313 5.19331L14.1309 5.19401L14.1305 5.19472L14.1301 5.19543L14.1297 5.19613L14.1293 5.19684L14.1289 5.19754L14.1285 5.19825L14.128 5.19896L14.1276 5.19966L14.1272 5.20037L14.1268 5.20107L14.1264 5.20178L14.126 5.20248L14.1256 5.20319L14.1252 5.20389L14.1248 5.2046L14.1244 5.2053L14.124 5.20601L14.1236 5.20671L14.1232 5.20741L14.1228 5.20812L14.1224 5.20882L14.122 5.20953L14.1216 5.21023L14.1212 5.21093L14.1208 5.21164L14.1204 5.21234L14.12 5.21305L14.1196 5.21375L14.1192 5.21445L14.1188 5.21516L14.1184 5.21586L14.118 5.21656L14.1176 5.21727L14.1172 5.21797L14.1168 5.21867L14.1164 5.21937L14.116 5.22008L14.1156 5.22078L14.1152 5.22148L14.1148 5.22218L14.1144 5.22289L14.114 5.22359L14.1136 5.22429L14.1132 5.22499L14.1128 5.22569L14.1124 5.2264L14.112 5.2271L14.1116 5.2278L14.1112 5.2285L14.1108 5.2292L14.1104 5.2299L14.11 5.2306L14.1096 5.23131L14.1092 5.23201L14.1088 5.23271L14.1084 5.23341L14.108 5.23411L14.1076 5.23481L14.1072 5.23551L14.1068 5.23621L14.1064 5.23691L14.106 5.23761L14.1056 5.23831L14.1052 5.23901L14.1048 5.23971L14.1044 5.24041L14.104 5.24111L14.1036 5.24181L14.1032 5.24251L14.1028 5.24321L14.1024 5.24391L14.102 5.24461L14.1016 5.24531L14.1012 5.246L14.1008 5.2467L14.1004 5.2474L14.1 5.2481L14.0996 5.2488L14.0992 5.2495L14.0988 5.2502L14.0984 5.25089L14.098 5.25159L14.0976 5.25229L14.0972 5.25299L14.0968 5.25369L14.0964 5.25438L14.096 5.25508L14.0956 5.25578L14.0952 5.25648L14.0948 5.25717L14.0944 5.25787L14.094 5.25857L14.0936 5.25927L14.0932 5.25996L14.0928 5.26066L14.0924 5.26136L14.092 5.26205L14.0916 5.26275L14.0912 5.26345L14.0908 5.26414L14.0904 5.26484L14.09 5.26554L14.0896 5.26623L14.0892 5.26693L14.0888 5.26762L14.0884 5.26832L14.088 5.26902L14.0876 5.26971L14.0872 5.27041L14.0868 5.2711L14.0864 5.2718L14.086 5.27249L14.0857 5.27319L14.0853 5.27388L14.0849 5.27458L14.0845 5.27527L14.0841 5.27597L14.0837 5.27666L14.0833 5.27736L14.0829 5.27805L14.0825 5.27875L14.0821 5.27944L14.0817 5.28013L14.0813 5.28083L14.0809 5.28152L14.0805 5.28222L14.0801 5.28291L14.0797 5.2836L14.0793 5.2843L14.0789 5.28499L14.0785 5.28568L14.0781 5.28638L14.0777 5.28707L14.0773 5.28776L14.0769 5.28846L14.0765 5.28915L14.0761 5.28984L14.0757 5.29053L14.0753 5.29123L14.075 5.29192L14.0746 5.29261L14.0742 5.2933L14.0738 5.294L14.0734 5.29469L14.073 5.29538L14.0726 5.29607L14.0722 5.29676L14.0718 5.29746L14.0714 5.29815L14.071 5.29884L14.0706 5.29953L14.0702 5.30022L14.0698 5.30091L14.0694 5.3016L14.069 5.30229L14.0686 5.30298L14.0682 5.30368L14.0678 5.30437L14.0675 5.30506L14.0671 5.30575L14.0667 5.30644L14.0663 5.30713L14.0659 5.30782L14.0655 5.30851L14.0651 5.3092L14.0647 5.30989L14.0643 5.31058L14.0639 5.31127L14.0635 5.31196L14.0631 5.31265L14.0627 5.31334L14.0623 5.31403L14.0619 5.31471L14.0615 5.3154L14.0611 5.31609L14.0608 5.31678L14.0604 5.31747L14.06 5.31816L14.0596 5.31885L14.0592 5.31954L14.0588 5.32022L14.0584 5.32091L14.058 5.3216L14.0576 5.32229L14.0572 5.32298L14.0568 5.32367L14.0564 5.32435L14.056 5.32504L14.0556 5.32573L14.0553 5.32642L14.0549 5.3271L14.0545 5.32779L14.0541 5.32848L14.0537 5.32916L14.0533 5.32985L14.0529 5.33054L14.0525 5.33123L14.0521 5.33191L14.0517 5.3326L14.0513 5.33329L14.0509 5.33397L14.0505 5.33466L14.0502 5.33534L14.0498 5.33603L14.0494 5.33672L14.049 5.3374L14.0486 5.33809L14.0482 5.33877L14.0478 5.33946L14.0474 5.34015L14.047 5.34083L14.0466 5.34152L14.0462 5.3422L14.0458 5.34289L14.0455 5.34357L14.0451 5.34426L14.0447 5.34494L14.0443 5.34563L14.0439 5.34631L14.0435 5.347L14.0431 5.34768L14.0427 5.34836L14.0423 5.34905L14.0419 5.34973L14.0415 5.35042L14.0412 5.3511L14.0408 5.35178L14.0404 5.35247L14.04 5.35315L14.0396 5.35384L14.0392 5.35452L14.0388 5.3552L14.0384 5.35589L14.038 5.35657L14.0376 5.35725L14.0373 5.35794L14.0369 5.35862L14.0365 5.3593L14.0361 5.35998L14.0357 5.36067L14.0353 5.36135L14.0349 5.36203L14.0345 5.36271L14.0341 5.3634L14.0337 5.36408L14.0334 5.36476L14.033 5.36544L14.0326 5.36612L14.0322 5.36681L14.0318 5.36749L14.0314 5.36817L14.031 5.36885L14.0306 5.36953L14.0302 5.37021L14.0299 5.37089L14.0295 5.37157L14.0291 5.37225L14.0287 5.37294L14.0283 5.37362L14.0279 5.3743L14.0275 5.37498L14.0271 5.37566L14.0267 5.37634L14.0264 5.37702L14.026 5.3777L14.0256 5.37838L14.0252 5.37906L14.0248 5.37974L14.0244 5.38042L14.024 5.3811L14.0236 5.38178L14.0232 5.38246L14.0229 5.38314L14.0225 5.38382L14.0221 5.38449L14.0217 5.38517L14.0213 5.38585L14.0209 5.38653L14.0205 5.38721L14.0201 5.38789L14.0198 5.38857L14.0194 5.38925L14.019 5.38992L14.0186 5.3906L14.0182 5.39128L14.0178 5.39196L14.0174 5.39264L14.017 5.39331L14.0167 5.39399L14.0163 5.39467L14.0159 5.39535L14.0155 5.39602L14.0151 5.3967L14.0147 5.39738L14.0143 5.39806L14.014 5.39873L14.0136 5.39941L14.0132 5.40009L14.0128 5.40076L14.0124 5.40144L14.012 5.40212L14.0116 5.40279L14.0112 5.40347L14.0109 5.40415L14.0105 5.40482L14.0101 5.4055L14.0097 5.40617L14.0093 5.40685L14.0089 5.40753L14.0085 5.4082L14.0082 5.40888L14.0078 5.40955L14.0074 5.41023L14.007 5.4109L14.0066 5.41158L14.0062 5.41225L14.0058 5.41293L14.0055 5.4136L14.0051 5.41428C12.7661 7.58367 13.3961 10.4483 15.6305 11.7524L15.8018 11.8524C15.934 11.9296 16.0264 12.0679 16.0056 12.3053C15.9844 12.5473 15.8506 12.7404 15.6289 12.8321C15.4798 12.8938 15.3442 12.8736 15.25 12.8186L12.9572 11.4804L11.2299 10.4723L7.71651 8.42169L5.9892 7.41354ZM4.99733 9.15025L2.70454 7.81206C2.05921 7.43541 1.62394 6.77265 1.52154 6.01078C1.2389 3.90788 3.45885 2.33279 5.24009 3.37241L5.41137 3.47238C6.63005 4.18366 8.20713 3.72871 8.93444 2.45522L9.13931 2.09649C10.4071 -0.123331 12.8672 -0.46334 14.5666 0.528543C16.2661 1.52043 17.2049 3.8442 15.9371 6.06402L15.7324 6.42243C15.0051 7.69591 15.4037 9.30442 16.6224 10.0157L16.7936 10.1157C18.5749 11.1553 18.3355 13.8864 16.3927 14.6904C15.6888 14.9817 14.9034 14.932 14.2581 14.5553L11.9653 13.2171L11.9653 13.2171L8.95119 18.4947C8.52896 19.234 8.0058 19.9094 7.39687 20.5015L6.23687 19.2894L7.39687 20.5015L4.63662 23.1855C2.68577 25.0825 -0.527696 23.2069 0.121955 20.5505L1.04116 16.792C1.24394 15.9628 1.56099 15.1671 1.98321 14.4278L1.98322 14.4278L4.99733 9.15025ZM6.72465 10.1584L3.71053 15.4359C3.38101 16.0129 3.13352 16.634 2.97521 17.2814L2.35699 19.8092L2.31019 20.0006L2.16332 20.6011L2.05601 21.0399C1.88465 21.7406 2.73581 22.2373 3.25037 21.737L3.57262 21.4236L4.01365 20.9948L4.1542 20.8581L6.01062 19.053C6.486 18.5907 6.89434 18.0635 7.22387 17.4865L9.24611 13.9457L10.238 12.209L8.51067 11.2008L6.72465 10.1584Z" fill="#212135"/>
</svg>
