<svg width="24" height="25" viewBox="0 0 24 25" fill="none" xmlns="http://www.w3.org/2000/svg">
<path d="M23 16.8507L23.9249 17.2311C24.0835 16.8454 23.9861 16.4017 23.6805 16.118C23.3749 15.8342 22.9253 15.7698 22.5524 15.9565L23 16.8507ZM10.0155 1.00002L10.8225 1.5906C11.0681 1.25503 11.0803 0.802498 10.8533 0.454097C10.6263 0.105695 10.2074 -0.0658574 9.8012 0.0232533L10.0155 1.00002ZM18.395 16.9366C13.1983 16.9366 8.95771 12.6496 8.95771 7.32666L6.95771 7.32666C6.95771 13.7231 12.063 18.9366 18.395 18.9366L18.395 16.9366ZM22.5524 15.9565C21.2988 16.584 19.8886 16.9366 18.395 16.9366L18.395 18.9366C20.2072 18.9366 21.9233 18.508 23.4477 17.7449L22.5524 15.9565ZM22.0752 16.4703C20.4946 20.3132 16.769 22.9976 12.4404 22.9976L12.4404 24.9976C17.6227 24.9976 22.0526 21.7832 23.9249 17.2311L22.0752 16.4703ZM12.4404 22.9976C6.68974 22.9976 2 18.2541 2 12.3679L-4.96908e-07 12.3679C-8.01124e-07 19.3276 5.55437 24.9976 12.4404 24.9976L12.4404 22.9976ZM2 12.3679C2 7.25955 5.53594 3.00657 10.2298 1.97679L9.8012 0.0232533C4.18778 1.25478 -2.32638e-07 6.32214 -4.96908e-07 12.3679L2 12.3679ZM8.95771 7.32666C8.95771 5.17396 9.65162 3.19047 10.8225 1.5906L9.20851 0.409445C7.79381 2.34252 6.95771 4.73757 6.95771 7.32666L8.95771 7.32666Z" fill="#212135"/>
<path d="M17.3434 2.77415C17.5689 2.16472 18.4309 2.16472 18.6564 2.77415L19.5087 5.07759C19.5796 5.26919 19.7307 5.42026 19.9223 5.49116L22.2257 6.3435C22.8352 6.56901 22.8352 7.43099 22.2257 7.6565L19.9223 8.50884C19.7307 8.57974 19.5796 8.73081 19.5087 8.92241L18.6564 11.2258C18.4309 11.8353 17.5689 11.8353 17.3434 11.2258L16.491 8.92241C16.4201 8.73081 16.2691 8.57974 16.0775 8.50884L13.774 7.6565C13.1646 7.43099 13.1646 6.56901 13.774 6.3435L16.0775 5.49116C16.2691 5.42026 16.4201 5.26919 16.491 5.07759L17.3434 2.77415Z" stroke="#212135" stroke-width="2" stroke-linecap="round"/>
</svg>
