<svg width="24" height="24" viewBox="0 0 24 24" fill="none" xmlns="http://www.w3.org/2000/svg">
<path d="M1 12C1 14.4477 1.13246 16.3463 1.46153 17.827C1.78807 19.2963 2.29478 20.2921 3.00136 20.9986C3.70794 21.7052 4.70365 22.2119 6.17298 22.5385C7.65366 22.8675 9.55232 23 12 23C14.4477 23 16.3463 22.8675 17.827 22.5385C19.2963 22.2119 20.2921 21.7052 20.9986 20.9986C21.7052 20.2921 22.2119 19.2963 22.5385 17.827C22.8675 16.3463 23 14.4477 23 12C23 9.55232 22.8675 7.65366 22.5385 6.17298C22.2119 4.70365 21.7052 3.70794 20.9986 3.00136C20.2921 2.29478 19.2963 1.78807 17.827 1.46153C16.3463 1.13246 14.4477 1 12 1C9.55232 1 7.65366 1.13246 6.17298 1.46153C4.70365 1.78807 3.70794 2.29478 3.00136 3.00136C2.29478 3.70794 1.78807 4.70365 1.46153 6.17298C1.13246 7.65366 1 9.55232 1 12Z" stroke="#212135" stroke-width="2" stroke-linecap="round" stroke-linejoin="round"/>
<path fill-rule="evenodd" clip-rule="evenodd" d="M15.6219 16.2798L16.7758 15.55L16.8599 15.4968C17.2965 15.221 17.7981 14.9042 18.173 14.5782C18.6096 14.1984 19.2451 13.4922 19.2451 12.4001C19.2451 11.3079 18.6096 10.6017 18.173 10.222C17.7981 9.89592 17.2965 9.5791 16.8599 9.30336L16.7758 9.25018L15.6219 8.52038L15.5352 8.46546L15.5352 8.46545C15.102 8.19104 14.5976 7.87154 14.1452 7.67576C13.6414 7.45771 12.6041 7.13055 11.5606 7.79057C11.1173 8.07098 10.8327 8.43221 10.6478 8.78983C10.3467 8.60113 10.0004 8.39328 9.67906 8.25423C9.23608 8.06252 8.24373 7.73943 7.23868 8.37512C6.30444 8.96603 6.11501 9.92572 6.05665 10.3564C5.99946 10.7784 5.99977 11.2905 6.00004 11.7294L6.00007 11.817V12.9847L6.00004 13.0723C5.99977 13.5112 5.99946 14.0234 6.05665 14.4454C6.11501 14.876 6.30444 15.8357 7.23868 16.4266C8.24373 17.0623 9.23608 16.7392 9.67906 16.5475C10.0006 16.4084 10.3472 16.2003 10.6484 16.0115C10.8333 16.3687 11.1178 16.7295 11.5606 17.0096C12.6041 17.6696 13.6414 17.3424 14.1452 17.1244C14.5976 16.9286 15.102 16.6091 15.5352 16.3347L15.6219 16.2798ZM10.2488 13.8979C10.2449 13.6741 10.245 13.4478 10.2451 13.2287V13.2287L10.2451 13.1299V11.6703L10.2451 11.5715V11.5715C10.245 11.3529 10.2449 11.1271 10.2488 10.9038L9.8463 10.6493C9.02575 10.1303 8.61548 9.87077 8.30778 10.0654C8.00007 10.26 8.00007 10.779 8.00007 11.817V12.9847C8.00007 14.0227 8.00007 14.5417 8.30778 14.7363C8.61548 14.931 9.02575 14.6715 9.8463 14.1525L10.2488 13.8979ZM15.7067 10.9405C16.7323 11.5892 17.2451 11.9135 17.2451 12.4001C17.2451 12.8866 16.7323 13.211 15.7067 13.8597L14.5528 14.5895C13.5272 15.2382 13.0143 15.5626 12.6297 15.3193C12.2451 15.076 12.2451 14.4273 12.2451 13.1299V11.6703C12.2451 10.3728 12.2451 9.72411 12.6297 9.48084C13.0143 9.23757 13.5272 9.56193 14.5528 10.2107L15.7067 10.9405Z" fill="#212135"/>
</svg>
